<mxfile host="app.diagrams.net" modified="2023-05-11T13:53:24.867Z" agent="Mozilla/5.0 (Macintosh; Intel Mac OS X 10_15_7) AppleWebKit/605.1.15 (KHTML, like Gecko) Version/16.3 Safari/605.1.15" etag="WMV7iQlCOWWHQu2Y1niL" version="21.2.9" type="google">
  <diagram id="C5RBs43oDa-KdzZeNtuy" name="Page-1">
    <mxGraphModel grid="1" page="1" gridSize="10" guides="1" tooltips="1" connect="1" arrows="1" fold="1" pageScale="1" pageWidth="827" pageHeight="1169" math="0" shadow="0">
      <root>
        <mxCell id="WIyWlLk6GJQsqaUBKTNV-0" />
        <mxCell id="WIyWlLk6GJQsqaUBKTNV-1" parent="WIyWlLk6GJQsqaUBKTNV-0" />
        <mxCell id="cwTZYxM3syVhlJXtX6Yq-4" value="" style="text;strokeColor=none;fillColor=none;align=left;verticalAlign=middle;spacingTop=-1;spacingLeft=4;spacingRight=4;rotatable=0;labelPosition=right;points=[];portConstraint=eastwest;" vertex="1" parent="WIyWlLk6GJQsqaUBKTNV-1">
          <mxGeometry x="400" y="340" width="20" height="14" as="geometry" />
        </mxCell>
        <mxCell id="cwTZYxM3syVhlJXtX6Yq-9" value="" style="text;strokeColor=none;fillColor=none;align=left;verticalAlign=middle;spacingTop=-1;spacingLeft=4;spacingRight=4;rotatable=0;labelPosition=right;points=[];portConstraint=eastwest;" vertex="1" parent="WIyWlLk6GJQsqaUBKTNV-1">
          <mxGeometry x="280" y="250" width="20" height="14" as="geometry" />
        </mxCell>
        <mxCell id="cwTZYxM3syVhlJXtX6Yq-10" value="&lt;&lt; enum &gt;&gt;&#xa;Moyen de Stockage" style="swimlane;fontStyle=1;align=center;verticalAlign=middle;childLayout=stackLayout;horizontal=1;startSize=26;horizontalStack=0;resizeParent=1;resizeParentMax=0;resizeLast=0;collapsible=1;marginBottom=0;" vertex="1" parent="WIyWlLk6GJQsqaUBKTNV-1">
          <mxGeometry x="-190" y="-960" width="160" height="86" as="geometry" />
        </mxCell>
        <mxCell id="cwTZYxM3syVhlJXtX6Yq-11" value="Vrac, Bouteille, Conserve, Sachet" style="text;strokeColor=none;fillColor=none;align=left;verticalAlign=top;spacingLeft=4;spacingRight=4;overflow=hidden;rotatable=0;points=[[0,0.5],[1,0.5]];portConstraint=eastwest;" vertex="1" parent="cwTZYxM3syVhlJXtX6Yq-10">
          <mxGeometry y="26" width="160" height="26" as="geometry" />
        </mxCell>
        <mxCell id="cwTZYxM3syVhlJXtX6Yq-12" value="" style="line;strokeWidth=1;fillColor=none;align=left;verticalAlign=middle;spacingTop=-1;spacingLeft=3;spacingRight=3;rotatable=0;labelPosition=right;points=[];portConstraint=eastwest;strokeColor=inherit;" vertex="1" parent="cwTZYxM3syVhlJXtX6Yq-10">
          <mxGeometry y="52" width="160" height="8" as="geometry" />
        </mxCell>
        <mxCell id="cwTZYxM3syVhlJXtX6Yq-13" value="+ getMoyen(): String" style="text;strokeColor=none;fillColor=none;align=left;verticalAlign=top;spacingLeft=4;spacingRight=4;overflow=hidden;rotatable=0;points=[[0,0.5],[1,0.5]];portConstraint=eastwest;" vertex="1" parent="cwTZYxM3syVhlJXtX6Yq-10">
          <mxGeometry y="60" width="160" height="26" as="geometry" />
        </mxCell>
        <mxCell id="YlhXMSk8rlpSGIsNYVBI-1" style="edgeStyle=orthogonalEdgeStyle;rounded=0;orthogonalLoop=1;jettySize=auto;html=1;exitX=0.5;exitY=0;exitDx=0;exitDy=0;entryX=0;entryY=0.5;entryDx=0;entryDy=0;endArrow=none;endFill=0;" edge="1" parent="WIyWlLk6GJQsqaUBKTNV-1" source="cwTZYxM3syVhlJXtX6Yq-15" target="WqLb10-Tx_MtQ4KCANer-29">
          <mxGeometry relative="1" as="geometry" />
        </mxCell>
        <mxCell id="cwTZYxM3syVhlJXtX6Yq-15" value="Date" style="swimlane;fontStyle=1;align=center;verticalAlign=top;childLayout=stackLayout;horizontal=1;startSize=26;horizontalStack=0;resizeParent=1;resizeParentMax=0;resizeLast=0;collapsible=1;marginBottom=0;" vertex="1" parent="WIyWlLk6GJQsqaUBKTNV-1">
          <mxGeometry x="-413" y="-550" width="160" height="52" as="geometry" />
        </mxCell>
        <mxCell id="cwTZYxM3syVhlJXtX6Yq-24" style="edgeStyle=orthogonalEdgeStyle;rounded=0;orthogonalLoop=1;jettySize=auto;html=1;exitX=0;exitY=0.25;exitDx=0;exitDy=0;strokeWidth=1;endArrow=diamondThin;endFill=1;endSize=10;entryX=1;entryY=0.5;entryDx=0;entryDy=0;" edge="1" parent="WIyWlLk6GJQsqaUBKTNV-1" source="cwTZYxM3syVhlJXtX6Yq-19">
          <mxGeometry relative="1" as="geometry">
            <mxPoint x="410" y="-787" as="targetPoint" />
          </mxGeometry>
        </mxCell>
        <mxCell id="cwTZYxM3syVhlJXtX6Yq-19" value="&lt;&lt;enum&gt;&gt;&#xa;UniteDeMesure" style="swimlane;fontStyle=1;align=center;verticalAlign=middle;childLayout=stackLayout;horizontal=1;startSize=26;horizontalStack=0;resizeParent=1;resizeParentMax=0;resizeLast=0;collapsible=1;marginBottom=0;" vertex="1" parent="WIyWlLk6GJQsqaUBKTNV-1">
          <mxGeometry x="610" y="-810" width="180" height="52" as="geometry" />
        </mxCell>
        <mxCell id="n4-UoHZURS_ivTSj71QO-0" value="Masse, Volume, Chiffre, Portion" style="text;strokeColor=none;fillColor=none;align=left;verticalAlign=top;spacingLeft=4;spacingRight=4;overflow=hidden;rotatable=0;points=[[0,0.5],[1,0.5]];portConstraint=eastwest;fontSize=12;" vertex="1" parent="cwTZYxM3syVhlJXtX6Yq-19">
          <mxGeometry y="26" width="180" height="26" as="geometry" />
        </mxCell>
        <mxCell id="n4-UoHZURS_ivTSj71QO-16" value="" style="text;strokeColor=none;fillColor=none;align=left;verticalAlign=middle;spacingTop=-1;spacingLeft=4;spacingRight=4;rotatable=0;labelPosition=right;points=[];portConstraint=eastwest;" vertex="1" parent="WIyWlLk6GJQsqaUBKTNV-1">
          <mxGeometry x="270" y="30" width="20" height="14" as="geometry" />
        </mxCell>
        <mxCell id="n4-UoHZURS_ivTSj71QO-17" value="&lt;&lt; Interface &gt;&gt;&#xa;Aliments " style="swimlane;fontStyle=1;align=center;verticalAlign=middle;childLayout=stackLayout;horizontal=1;startSize=26;horizontalStack=0;resizeParent=1;resizeParentMax=0;resizeLast=0;collapsible=1;marginBottom=0;rounded=0;shadow=0;glass=0;" vertex="1" parent="WIyWlLk6GJQsqaUBKTNV-1">
          <mxGeometry x="220" y="-850" width="190" height="346" as="geometry">
            <mxRectangle x="270" y="150" width="100" height="30" as="alternateBounds" />
          </mxGeometry>
        </mxCell>
        <mxCell id="n4-UoHZURS_ivTSj71QO-18" value="- M: Moyen de Stockage" style="text;strokeColor=none;fillColor=none;align=left;verticalAlign=top;spacingLeft=4;spacingRight=4;overflow=hidden;rotatable=0;points=[[0,0.5],[1,0.5]];portConstraint=eastwest;fontSize=12;" vertex="1" parent="n4-UoHZURS_ivTSj71QO-17">
          <mxGeometry y="26" width="190" height="26" as="geometry" />
        </mxCell>
        <mxCell id="n4-UoHZURS_ivTSj71QO-20" value="- Udm: UnitÃ© de mesure" style="text;strokeColor=none;fillColor=none;align=left;verticalAlign=top;spacingLeft=4;spacingRight=4;overflow=hidden;rotatable=0;points=[[0,0.5],[1,0.5]];portConstraint=eastwest;fontSize=12;" vertex="1" parent="n4-UoHZURS_ivTSj71QO-17">
          <mxGeometry y="52" width="190" height="26" as="geometry" />
        </mxCell>
        <mxCell id="n4-UoHZURS_ivTSj71QO-21" value="- nom: String" style="text;strokeColor=none;fillColor=none;align=left;verticalAlign=top;spacingLeft=4;spacingRight=4;overflow=hidden;rotatable=0;points=[[0,0.5],[1,0.5]];portConstraint=eastwest;fontSize=12;" vertex="1" parent="n4-UoHZURS_ivTSj71QO-17">
          <mxGeometry y="78" width="190" height="26" as="geometry" />
        </mxCell>
        <mxCell id="WqLb10-Tx_MtQ4KCANer-27" value="- type : type d&#39;Aliments" style="text;strokeColor=none;fillColor=none;align=left;verticalAlign=top;spacingLeft=4;spacingRight=4;overflow=hidden;rotatable=0;points=[[0,0.5],[1,0.5]];portConstraint=eastwest;fontSize=12;" vertex="1" parent="n4-UoHZURS_ivTSj71QO-17">
          <mxGeometry y="104" width="190" height="26" as="geometry" />
        </mxCell>
        <mxCell id="n4-UoHZURS_ivTSj71QO-22" value="" style="line;strokeWidth=1;fillColor=none;align=left;verticalAlign=middle;spacingTop=-1;spacingLeft=3;spacingRight=3;rotatable=0;labelPosition=right;points=[];portConstraint=eastwest;strokeColor=inherit;" vertex="1" parent="n4-UoHZURS_ivTSj71QO-17">
          <mxGeometry y="130" width="190" height="8" as="geometry" />
        </mxCell>
        <mxCell id="n4-UoHZURS_ivTSj71QO-23" value="+ setM(M):void" style="text;strokeColor=none;fillColor=none;align=left;verticalAlign=top;spacingLeft=4;spacingRight=4;overflow=hidden;rotatable=0;points=[[0,0.5],[1,0.5]];portConstraint=eastwest;" vertex="1" parent="n4-UoHZURS_ivTSj71QO-17">
          <mxGeometry y="138" width="190" height="26" as="geometry" />
        </mxCell>
        <mxCell id="n4-UoHZURS_ivTSj71QO-24" value="+ setDdP(DdP):void" style="text;strokeColor=none;fillColor=none;align=left;verticalAlign=top;spacingLeft=4;spacingRight=4;overflow=hidden;rotatable=0;points=[[0,0.5],[1,0.5]];portConstraint=eastwest;" vertex="1" parent="n4-UoHZURS_ivTSj71QO-17">
          <mxGeometry y="164" width="190" height="26" as="geometry" />
        </mxCell>
        <mxCell id="n4-UoHZURS_ivTSj71QO-25" value="+ setUdm(Udm):void" style="text;strokeColor=none;fillColor=none;align=left;verticalAlign=top;spacingLeft=4;spacingRight=4;overflow=hidden;rotatable=0;points=[[0,0.5],[1,0.5]];portConstraint=eastwest;" vertex="1" parent="n4-UoHZURS_ivTSj71QO-17">
          <mxGeometry y="190" width="190" height="26" as="geometry" />
        </mxCell>
        <mxCell id="n4-UoHZURS_ivTSj71QO-26" value="+ setNom(string):void" style="text;strokeColor=none;fillColor=none;align=left;verticalAlign=top;spacingLeft=4;spacingRight=4;overflow=hidden;rotatable=0;points=[[0,0.5],[1,0.5]];portConstraint=eastwest;" vertex="1" parent="n4-UoHZURS_ivTSj71QO-17">
          <mxGeometry y="216" width="190" height="26" as="geometry" />
        </mxCell>
        <mxCell id="n4-UoHZURS_ivTSj71QO-27" value="+ getM():M" style="text;strokeColor=none;fillColor=none;align=left;verticalAlign=top;spacingLeft=4;spacingRight=4;overflow=hidden;rotatable=0;points=[[0,0.5],[1,0.5]];portConstraint=eastwest;" vertex="1" parent="n4-UoHZURS_ivTSj71QO-17">
          <mxGeometry y="242" width="190" height="26" as="geometry" />
        </mxCell>
        <mxCell id="n4-UoHZURS_ivTSj71QO-28" value="+ getDdp():Ddp" style="text;strokeColor=none;fillColor=none;align=left;verticalAlign=top;spacingLeft=4;spacingRight=4;overflow=hidden;rotatable=0;points=[[0,0.5],[1,0.5]];portConstraint=eastwest;" vertex="1" parent="n4-UoHZURS_ivTSj71QO-17">
          <mxGeometry y="268" width="190" height="26" as="geometry" />
        </mxCell>
        <mxCell id="n4-UoHZURS_ivTSj71QO-29" value="+ setUdm():Udm" style="text;strokeColor=none;fillColor=none;align=left;verticalAlign=top;spacingLeft=4;spacingRight=4;overflow=hidden;rotatable=0;points=[[0,0.5],[1,0.5]];portConstraint=eastwest;" vertex="1" parent="n4-UoHZURS_ivTSj71QO-17">
          <mxGeometry y="294" width="190" height="26" as="geometry" />
        </mxCell>
        <mxCell id="n4-UoHZURS_ivTSj71QO-30" value="+ setNom():String" style="text;strokeColor=none;fillColor=none;align=left;verticalAlign=top;spacingLeft=4;spacingRight=4;overflow=hidden;rotatable=0;points=[[0,0.5],[1,0.5]];portConstraint=eastwest;" vertex="1" parent="n4-UoHZURS_ivTSj71QO-17">
          <mxGeometry y="320" width="190" height="26" as="geometry" />
        </mxCell>
        <mxCell id="n4-UoHZURS_ivTSj71QO-33" value="" style="text;strokeColor=none;fillColor=none;align=left;verticalAlign=middle;spacingTop=-1;spacingLeft=4;spacingRight=4;rotatable=0;labelPosition=right;points=[];portConstraint=eastwest;" vertex="1" parent="WIyWlLk6GJQsqaUBKTNV-1">
          <mxGeometry x="360" y="35" width="20" height="14" as="geometry" />
        </mxCell>
        <mxCell id="n4-UoHZURS_ivTSj71QO-34" value="" style="text;strokeColor=none;fillColor=none;align=left;verticalAlign=middle;spacingTop=-1;spacingLeft=4;spacingRight=4;rotatable=0;labelPosition=right;points=[];portConstraint=eastwest;" vertex="1" parent="WIyWlLk6GJQsqaUBKTNV-1">
          <mxGeometry x="220" y="-20" width="20" height="14" as="geometry" />
        </mxCell>
        <mxCell id="n4-UoHZURS_ivTSj71QO-35" value="" style="text;strokeColor=none;fillColor=none;align=left;verticalAlign=middle;spacingTop=-1;spacingLeft=4;spacingRight=4;rotatable=0;labelPosition=right;points=[];portConstraint=eastwest;" vertex="1" parent="WIyWlLk6GJQsqaUBKTNV-1">
          <mxGeometry x="100" y="-110" width="20" height="14" as="geometry" />
        </mxCell>
        <mxCell id="n4-UoHZURS_ivTSj71QO-36" value="&lt;&lt; Interface &gt;&gt;&#xa;Aliments stockÃ©" style="swimlane;fontStyle=1;align=center;verticalAlign=middle;childLayout=stackLayout;horizontal=1;startSize=26;horizontalStack=0;resizeParent=1;resizeParentMax=0;resizeLast=0;collapsible=1;marginBottom=0;rounded=0;shadow=0;glass=0;" vertex="1" parent="WIyWlLk6GJQsqaUBKTNV-1">
          <mxGeometry x="-150" y="-640" width="190" height="168" as="geometry">
            <mxRectangle x="270" y="150" width="100" height="30" as="alternateBounds" />
          </mxGeometry>
        </mxCell>
        <mxCell id="n4-UoHZURS_ivTSj71QO-37" value="- Qte: int" style="text;strokeColor=none;fillColor=none;align=left;verticalAlign=top;spacingLeft=4;spacingRight=4;overflow=hidden;rotatable=0;points=[[0,0.5],[1,0.5]];portConstraint=eastwest;fontSize=12;" vertex="1" parent="n4-UoHZURS_ivTSj71QO-36">
          <mxGeometry y="26" width="190" height="26" as="geometry" />
        </mxCell>
        <mxCell id="WqLb10-Tx_MtQ4KCANer-29" value="- DdP: Date de PÃ©remption" style="text;strokeColor=none;fillColor=none;align=left;verticalAlign=top;spacingLeft=4;spacingRight=4;overflow=hidden;rotatable=0;points=[[0,0.5],[1,0.5]];portConstraint=eastwest;fontSize=12;" vertex="1" parent="n4-UoHZURS_ivTSj71QO-36">
          <mxGeometry y="52" width="190" height="26" as="geometry" />
        </mxCell>
        <mxCell id="o_Rr1loWerUNdX8iVWxO-6" value="-Stock : stock " style="text;strokeColor=none;fillColor=none;align=left;verticalAlign=top;spacingLeft=4;spacingRight=4;overflow=hidden;rotatable=0;points=[[0,0.5],[1,0.5]];portConstraint=eastwest;fontSize=12;" vertex="1" parent="n4-UoHZURS_ivTSj71QO-36">
          <mxGeometry y="78" width="190" height="26" as="geometry" />
        </mxCell>
        <mxCell id="n4-UoHZURS_ivTSj71QO-38" value="" style="line;strokeWidth=1;fillColor=none;align=left;verticalAlign=middle;spacingTop=-1;spacingLeft=3;spacingRight=3;rotatable=0;labelPosition=right;points=[];portConstraint=eastwest;strokeColor=inherit;" vertex="1" parent="n4-UoHZURS_ivTSj71QO-36">
          <mxGeometry y="104" width="190" height="8" as="geometry" />
        </mxCell>
        <mxCell id="n4-UoHZURS_ivTSj71QO-39" value="+ setQte(Qte):void" style="text;strokeColor=none;fillColor=none;align=left;verticalAlign=top;spacingLeft=4;spacingRight=4;overflow=hidden;rotatable=0;points=[[0,0.5],[1,0.5]];portConstraint=eastwest;" vertex="1" parent="n4-UoHZURS_ivTSj71QO-36">
          <mxGeometry y="112" width="190" height="26" as="geometry" />
        </mxCell>
        <mxCell id="n4-UoHZURS_ivTSj71QO-40" value="+ getQte():Qte" style="text;strokeColor=none;fillColor=none;align=left;verticalAlign=top;spacingLeft=4;spacingRight=4;overflow=hidden;rotatable=0;points=[[0,0.5],[1,0.5]];portConstraint=eastwest;" vertex="1" parent="n4-UoHZURS_ivTSj71QO-36">
          <mxGeometry y="138" width="190" height="30" as="geometry" />
        </mxCell>
        <mxCell id="n4-UoHZURS_ivTSj71QO-41" value="&lt;&lt; Interface &gt;&gt;&#xa;Aliments rÃ©servÃ©e" style="swimlane;fontStyle=1;align=center;verticalAlign=middle;childLayout=stackLayout;horizontal=1;startSize=26;horizontalStack=0;resizeParent=1;resizeParentMax=0;resizeLast=0;collapsible=1;marginBottom=0;rounded=0;shadow=0;glass=0;" vertex="1" parent="WIyWlLk6GJQsqaUBKTNV-1">
          <mxGeometry x="50" y="-100" width="190" height="112" as="geometry">
            <mxRectangle x="270" y="150" width="100" height="30" as="alternateBounds" />
          </mxGeometry>
        </mxCell>
        <mxCell id="n4-UoHZURS_ivTSj71QO-42" value="- Qte: int" style="text;strokeColor=none;fillColor=none;align=left;verticalAlign=top;spacingLeft=4;spacingRight=4;overflow=hidden;rotatable=0;points=[[0,0.5],[1,0.5]];portConstraint=eastwest;fontSize=12;" vertex="1" parent="n4-UoHZURS_ivTSj71QO-41">
          <mxGeometry y="26" width="190" height="26" as="geometry" />
        </mxCell>
        <mxCell id="n4-UoHZURS_ivTSj71QO-43" value="" style="line;strokeWidth=1;fillColor=none;align=left;verticalAlign=middle;spacingTop=-1;spacingLeft=3;spacingRight=3;rotatable=0;labelPosition=right;points=[];portConstraint=eastwest;strokeColor=inherit;" vertex="1" parent="n4-UoHZURS_ivTSj71QO-41">
          <mxGeometry y="52" width="190" height="8" as="geometry" />
        </mxCell>
        <mxCell id="n4-UoHZURS_ivTSj71QO-44" value="+ setQte(Qte):void" style="text;strokeColor=none;fillColor=none;align=left;verticalAlign=top;spacingLeft=4;spacingRight=4;overflow=hidden;rotatable=0;points=[[0,0.5],[1,0.5]];portConstraint=eastwest;" vertex="1" parent="n4-UoHZURS_ivTSj71QO-41">
          <mxGeometry y="60" width="190" height="26" as="geometry" />
        </mxCell>
        <mxCell id="n4-UoHZURS_ivTSj71QO-45" value="+ getQte():Qte" style="text;strokeColor=none;fillColor=none;align=left;verticalAlign=top;spacingLeft=4;spacingRight=4;overflow=hidden;rotatable=0;points=[[0,0.5],[1,0.5]];portConstraint=eastwest;" vertex="1" parent="n4-UoHZURS_ivTSj71QO-41">
          <mxGeometry y="86" width="190" height="26" as="geometry" />
        </mxCell>
        <mxCell id="n4-UoHZURS_ivTSj71QO-48" value="Extends" style="endArrow=block;endSize=16;endFill=0;html=1;rounded=0;exitX=0.5;exitY=0;exitDx=0;exitDy=0;entryX=0.834;entryY=0.985;entryDx=0;entryDy=0;entryPerimeter=0;" edge="1" parent="WIyWlLk6GJQsqaUBKTNV-1" source="n4-UoHZURS_ivTSj71QO-41" target="n4-UoHZURS_ivTSj71QO-40">
          <mxGeometry width="160" relative="1" as="geometry">
            <mxPoint x="155.76999999999998" y="-96" as="sourcePoint" />
            <mxPoint y="-520" as="targetPoint" />
            <Array as="points" />
          </mxGeometry>
        </mxCell>
        <mxCell id="n4-UoHZURS_ivTSj71QO-53" style="edgeStyle=orthogonalEdgeStyle;rounded=0;orthogonalLoop=1;jettySize=auto;html=1;exitX=1;exitY=0.25;exitDx=0;exitDy=0;entryX=0;entryY=0.5;entryDx=0;entryDy=0;strokeWidth=1;fontSize=12;endArrow=diamondThin;endFill=0;endSize=10;" edge="1" parent="WIyWlLk6GJQsqaUBKTNV-1" target="n4-UoHZURS_ivTSj71QO-18">
          <mxGeometry relative="1" as="geometry">
            <mxPoint x="-30" y="-911.5" as="sourcePoint" />
            <mxPoint x="290" y="-990" as="targetPoint" />
          </mxGeometry>
        </mxCell>
        <mxCell id="WqLb10-Tx_MtQ4KCANer-2" value="" style="endArrow=none;html=1;rounded=0;exitX=0.998;exitY=1.079;exitDx=0;exitDy=0;exitPerimeter=0;" edge="1" parent="WIyWlLk6GJQsqaUBKTNV-1" source="n4-UoHZURS_ivTSj71QO-37">
          <mxGeometry width="50" height="50" relative="1" as="geometry">
            <mxPoint x="170" y="-350" as="sourcePoint" />
            <mxPoint x="40" y="-586" as="targetPoint" />
            <Array as="points">
              <mxPoint x="220" y="-586" />
            </Array>
          </mxGeometry>
        </mxCell>
        <mxCell id="YlhXMSk8rlpSGIsNYVBI-2" value="&amp;lt;&amp;lt;enum&amp;gt;&amp;gt;&lt;br&gt;typeAliment" style="swimlane;fontStyle=1;align=center;verticalAlign=middle;childLayout=stackLayout;horizontal=1;startSize=26;horizontalStack=0;resizeParent=1;resizeParentMax=0;resizeLast=0;collapsible=1;marginBottom=0;whiteSpace=wrap;html=1;" vertex="1" parent="WIyWlLk6GJQsqaUBKTNV-1">
          <mxGeometry x="640" y="-730" width="160" height="80" as="geometry" />
        </mxCell>
        <mxCell id="YlhXMSk8rlpSGIsNYVBI-3" value="&lt;div&gt;Fruits_Legumes,Viande_Poisson,&lt;/div&gt;&lt;div&gt;ProduitsLaitiers,CÃ©reales,&lt;/div&gt;&lt;div&gt;Surgeles,Boissons,Snacks&lt;/div&gt;" style="text;strokeColor=none;fillColor=none;align=left;verticalAlign=top;spacingLeft=4;spacingRight=4;overflow=hidden;rotatable=0;points=[[0,0.5],[1,0.5]];portConstraint=eastwest;whiteSpace=wrap;html=1;" vertex="1" parent="YlhXMSk8rlpSGIsNYVBI-2">
          <mxGeometry y="26" width="160" height="54" as="geometry" />
        </mxCell>
        <mxCell id="YlhXMSk8rlpSGIsNYVBI-6" style="edgeStyle=orthogonalEdgeStyle;rounded=0;orthogonalLoop=1;jettySize=auto;html=1;exitX=0;exitY=0.25;exitDx=0;exitDy=0;strokeWidth=1;endArrow=diamondThin;endFill=1;endSize=10;entryX=1;entryY=-0.154;entryDx=0;entryDy=0;entryPerimeter=0;" edge="1" parent="WIyWlLk6GJQsqaUBKTNV-1" target="WqLb10-Tx_MtQ4KCANer-27">
          <mxGeometry relative="1" as="geometry">
            <mxPoint x="440" y="-680" as="targetPoint" />
            <mxPoint x="640" y="-690" as="sourcePoint" />
          </mxGeometry>
        </mxCell>
        <mxCell id="o_Rr1loWerUNdX8iVWxO-4" style="edgeStyle=orthogonalEdgeStyle;rounded=0;orthogonalLoop=1;jettySize=auto;html=1;entryX=0;entryY=-0.077;entryDx=0;entryDy=0;entryPerimeter=0;endArrow=none;endFill=0;" edge="1" parent="WIyWlLk6GJQsqaUBKTNV-1" source="o_Rr1loWerUNdX8iVWxO-0" target="WqLb10-Tx_MtQ4KCANer-29">
          <mxGeometry relative="1" as="geometry" />
        </mxCell>
        <mxCell id="o_Rr1loWerUNdX8iVWxO-0" value="Stock" style="swimlane;fontStyle=1;align=center;verticalAlign=middle;childLayout=stackLayout;horizontal=1;startSize=26;horizontalStack=0;resizeParent=1;resizeParentMax=0;resizeLast=0;collapsible=1;marginBottom=0;" vertex="1" parent="WIyWlLk6GJQsqaUBKTNV-1">
          <mxGeometry x="-590" y="-810" width="240" height="230" as="geometry" />
        </mxCell>
        <mxCell id="o_Rr1loWerUNdX8iVWxO-1" value="Stock:map&lt;nom,List&lt;alimentstockable&gt;&gt;" style="text;strokeColor=none;fillColor=none;align=left;verticalAlign=top;spacingLeft=4;spacingRight=4;overflow=hidden;rotatable=0;points=[[0,0.5],[1,0.5]];portConstraint=eastwest;" vertex="1" parent="o_Rr1loWerUNdX8iVWxO-0">
          <mxGeometry y="26" width="240" height="26" as="geometry" />
        </mxCell>
        <mxCell id="o_Rr1loWerUNdX8iVWxO-2" value="" style="line;strokeWidth=1;fillColor=none;align=left;verticalAlign=middle;spacingTop=-1;spacingLeft=3;spacingRight=3;rotatable=0;labelPosition=right;points=[];portConstraint=eastwest;strokeColor=inherit;" vertex="1" parent="o_Rr1loWerUNdX8iVWxO-0">
          <mxGeometry y="52" width="240" height="8" as="geometry" />
        </mxCell>
        <mxCell id="o_Rr1loWerUNdX8iVWxO-3" value="+ creerstock(nom)&#xa;+ajouterAliment( nomStock,Â  aliment)&#xa;+retirerAliment(nomStock, aliment)&#xa;+afficherContenuStock()&#xa;&#xa;" style="text;strokeColor=none;fillColor=none;align=left;verticalAlign=top;spacingLeft=4;spacingRight=4;overflow=hidden;rotatable=0;points=[[0,0.5],[1,0.5]];portConstraint=eastwest;" vertex="1" parent="o_Rr1loWerUNdX8iVWxO-0">
          <mxGeometry y="60" width="240" height="170" as="geometry" />
        </mxCell>
        <mxCell id="7VYtlbv730Wh1TQMktHw-26" value="&lt;&lt; Interface &gt;&gt;&#xa;GestionnaireRecette" style="swimlane;fontStyle=2;align=center;verticalAlign=top;childLayout=stackLayout;horizontal=1;startSize=40;horizontalStack=0;resizeParent=1;resizeLast=0;collapsible=1;marginBottom=0;rounded=0;shadow=0;strokeWidth=1;" vertex="1" parent="WIyWlLk6GJQsqaUBKTNV-1">
          <mxGeometry x="870" y="-450" width="490" height="230" as="geometry">
            <mxRectangle x="230" y="140" width="160" height="26" as="alternateBounds" />
          </mxGeometry>
        </mxCell>
        <mxCell id="7VYtlbv730Wh1TQMktHw-27" value="recettes : List&lt;Recette&gt;" style="text;align=left;verticalAlign=top;spacingLeft=4;spacingRight=4;overflow=hidden;rotatable=0;points=[[0,0.5],[1,0.5]];portConstraint=eastwest;" vertex="1" parent="7VYtlbv730Wh1TQMktHw-26">
          <mxGeometry y="40" width="490" height="26" as="geometry" />
        </mxCell>
        <mxCell id="7VYtlbv730Wh1TQMktHw-28" value="" style="line;html=1;strokeWidth=1;align=left;verticalAlign=middle;spacingTop=-1;spacingLeft=3;spacingRight=3;rotatable=0;labelPosition=right;points=[];portConstraint=eastwest;" vertex="1" parent="7VYtlbv730Wh1TQMktHw-26">
          <mxGeometry y="66" width="490" height="8" as="geometry" />
        </mxCell>
        <mxCell id="7VYtlbv730Wh1TQMktHw-29" value="+ajouterRecette(r:Recette) : void" style="text;align=left;verticalAlign=top;spacingLeft=4;spacingRight=4;overflow=hidden;rotatable=0;points=[[0,0.5],[1,0.5]];portConstraint=eastwest;rounded=0;shadow=0;html=0;" vertex="1" parent="7VYtlbv730Wh1TQMktHw-26">
          <mxGeometry y="74" width="490" height="26" as="geometry" />
        </mxCell>
        <mxCell id="7VYtlbv730Wh1TQMktHw-30" value="+supprimerRecette(r:Recette) : voidÂ " style="text;align=left;verticalAlign=top;spacingLeft=4;spacingRight=4;overflow=hidden;rotatable=0;points=[[0,0.5],[1,0.5]];portConstraint=eastwest;rounded=0;shadow=0;html=0;" vertex="1" parent="7VYtlbv730Wh1TQMktHw-26">
          <mxGeometry y="100" width="490" height="26" as="geometry" />
        </mxCell>
        <mxCell id="7VYtlbv730Wh1TQMktHw-31" value="+rechercherRecettesParNom(nom: string): List&lt;Recette&gt;" style="text;align=left;verticalAlign=top;spacingLeft=4;spacingRight=4;overflow=hidden;rotatable=0;points=[[0,0.5],[1,0.5]];portConstraint=eastwest;" vertex="1" parent="7VYtlbv730Wh1TQMktHw-26">
          <mxGeometry y="126" width="490" height="26" as="geometry" />
        </mxCell>
        <mxCell id="7VYtlbv730Wh1TQMktHw-32" value="+rechercherRecettesParIngredients(ingredients:Â List&lt;alimentstockable&gt;): List&lt;Recette&gt;" style="text;align=left;verticalAlign=top;spacingLeft=4;spacingRight=4;overflow=hidden;rotatable=0;points=[[0,0.5],[1,0.5]];portConstraint=eastwest;rounded=0;shadow=0;html=0;" vertex="1" parent="7VYtlbv730Wh1TQMktHw-26">
          <mxGeometry y="152" width="490" height="26" as="geometry" />
        </mxCell>
        <mxCell id="7VYtlbv730Wh1TQMktHw-33" value="+rechercherRecettesParDuree(temps: int): List&lt;Recette&gt;" style="text;align=left;verticalAlign=top;spacingLeft=4;spacingRight=4;overflow=hidden;rotatable=0;points=[[0,0.5],[1,0.5]];portConstraint=eastwest;rounded=0;shadow=0;html=0;" vertex="1" parent="7VYtlbv730Wh1TQMktHw-26">
          <mxGeometry y="178" width="490" height="26" as="geometry" />
        </mxCell>
        <mxCell id="7VYtlbv730Wh1TQMktHw-34" value="+getRecettes(): List&lt;Recette&gt;" style="text;align=left;verticalAlign=top;spacingLeft=4;spacingRight=4;overflow=hidden;rotatable=0;points=[[0,0.5],[1,0.5]];portConstraint=eastwest;rounded=0;shadow=0;html=0;" vertex="1" parent="7VYtlbv730Wh1TQMktHw-26">
          <mxGeometry y="204" width="490" height="26" as="geometry" />
        </mxCell>
        <mxCell id="7VYtlbv730Wh1TQMktHw-35" value="Recette" style="swimlane;fontStyle=0;align=center;verticalAlign=top;childLayout=stackLayout;horizontal=1;startSize=26;horizontalStack=0;resizeParent=1;resizeLast=0;collapsible=1;marginBottom=0;rounded=0;shadow=0;strokeWidth=1;" vertex="1" parent="WIyWlLk6GJQsqaUBKTNV-1">
          <mxGeometry x="414" y="-472" width="270" height="350" as="geometry">
            <mxRectangle x="550" y="140" width="160" height="26" as="alternateBounds" />
          </mxGeometry>
        </mxCell>
        <mxCell id="7VYtlbv730Wh1TQMktHw-36" value="nom: string" style="text;align=left;verticalAlign=top;spacingLeft=4;spacingRight=4;overflow=hidden;rotatable=0;points=[[0,0.5],[1,0.5]];portConstraint=eastwest;" vertex="1" parent="7VYtlbv730Wh1TQMktHw-35">
          <mxGeometry y="26" width="270" height="26" as="geometry" />
        </mxCell>
        <mxCell id="7VYtlbv730Wh1TQMktHw-37" value="ingredients:Â List&lt;Aliment&gt; " style="text;align=left;verticalAlign=top;spacingLeft=4;spacingRight=4;overflow=hidden;rotatable=0;points=[[0,0.5],[1,0.5]];portConstraint=eastwest;rounded=0;shadow=0;html=0;" vertex="1" parent="7VYtlbv730Wh1TQMktHw-35">
          <mxGeometry y="52" width="270" height="26" as="geometry" />
        </mxCell>
        <mxCell id="7VYtlbv730Wh1TQMktHw-38" value="instructions: string" style="text;align=left;verticalAlign=top;spacingLeft=4;spacingRight=4;overflow=hidden;rotatable=0;points=[[0,0.5],[1,0.5]];portConstraint=eastwest;rounded=0;shadow=0;html=0;" vertex="1" parent="7VYtlbv730Wh1TQMktHw-35">
          <mxGeometry y="78" width="270" height="26" as="geometry" />
        </mxCell>
        <mxCell id="7VYtlbv730Wh1TQMktHw-39" value="duree: int " style="text;align=left;verticalAlign=top;spacingLeft=4;spacingRight=4;overflow=hidden;rotatable=0;points=[[0,0.5],[1,0.5]];portConstraint=eastwest;rounded=0;shadow=0;html=0;" vertex="1" parent="7VYtlbv730Wh1TQMktHw-35">
          <mxGeometry y="104" width="270" height="26" as="geometry" />
        </mxCell>
        <mxCell id="7VYtlbv730Wh1TQMktHw-40" value="" style="line;html=1;strokeWidth=1;align=left;verticalAlign=middle;spacingTop=-1;spacingLeft=3;spacingRight=3;rotatable=0;labelPosition=right;points=[];portConstraint=eastwest;" vertex="1" parent="7VYtlbv730Wh1TQMktHw-35">
          <mxGeometry y="130" width="270" height="8" as="geometry" />
        </mxCell>
        <mxCell id="7VYtlbv730Wh1TQMktHw-41" value="+getNom(): string" style="text;align=left;verticalAlign=top;spacingLeft=4;spacingRight=4;overflow=hidden;rotatable=0;points=[[0,0.5],[1,0.5]];portConstraint=eastwest;" vertex="1" parent="7VYtlbv730Wh1TQMktHw-35">
          <mxGeometry y="138" width="270" height="26" as="geometry" />
        </mxCell>
        <mxCell id="7VYtlbv730Wh1TQMktHw-42" value="+setNom(nom: string)" style="text;align=left;verticalAlign=top;spacingLeft=4;spacingRight=4;overflow=hidden;rotatable=0;points=[[0,0.5],[1,0.5]];portConstraint=eastwest;" vertex="1" parent="7VYtlbv730Wh1TQMktHw-35">
          <mxGeometry y="164" width="270" height="26" as="geometry" />
        </mxCell>
        <mxCell id="7VYtlbv730Wh1TQMktHw-43" value="+setIngredients(ingredients: List&lt;Aliment&gt;) " style="text;align=left;verticalAlign=top;spacingLeft=4;spacingRight=4;overflow=hidden;rotatable=0;points=[[0,0.5],[1,0.5]];portConstraint=eastwest;rounded=0;shadow=0;html=0;" vertex="1" parent="7VYtlbv730Wh1TQMktHw-35">
          <mxGeometry y="190" width="270" height="26" as="geometry" />
        </mxCell>
        <mxCell id="7VYtlbv730Wh1TQMktHw-44" value="+getIngredients(): List&lt;Aliment&gt;" style="text;align=left;verticalAlign=top;spacingLeft=4;spacingRight=4;overflow=hidden;rotatable=0;points=[[0,0.5],[1,0.5]];portConstraint=eastwest;rounded=0;shadow=0;html=0;" vertex="1" parent="7VYtlbv730Wh1TQMktHw-35">
          <mxGeometry y="216" width="270" height="24" as="geometry" />
        </mxCell>
        <mxCell id="7VYtlbv730Wh1TQMktHw-45" value="+ setInstructions(instructions: string)" style="text;align=left;verticalAlign=top;spacingLeft=4;spacingRight=4;overflow=hidden;rotatable=0;points=[[0,0.5],[1,0.5]];portConstraint=eastwest;" vertex="1" parent="7VYtlbv730Wh1TQMktHw-35">
          <mxGeometry y="240" width="270" height="26" as="geometry" />
        </mxCell>
        <mxCell id="7VYtlbv730Wh1TQMktHw-46" value="+ getDuree(): int" style="text;align=left;verticalAlign=top;spacingLeft=4;spacingRight=4;overflow=hidden;rotatable=0;points=[[0,0.5],[1,0.5]];portConstraint=eastwest;" vertex="1" parent="7VYtlbv730Wh1TQMktHw-35">
          <mxGeometry y="266" width="270" height="26" as="geometry" />
        </mxCell>
        <mxCell id="7VYtlbv730Wh1TQMktHw-47" value="+ setDuree(duree: int)" style="text;align=left;verticalAlign=top;spacingLeft=4;spacingRight=4;overflow=hidden;rotatable=0;points=[[0,0.5],[1,0.5]];portConstraint=eastwest;" vertex="1" parent="7VYtlbv730Wh1TQMktHw-35">
          <mxGeometry y="292" width="270" height="26" as="geometry" />
        </mxCell>
        <mxCell id="7VYtlbv730Wh1TQMktHw-48" value="+ getInstructions(): string" style="text;align=left;verticalAlign=top;spacingLeft=4;spacingRight=4;overflow=hidden;rotatable=0;points=[[0,0.5],[1,0.5]];portConstraint=eastwest;" vertex="1" parent="7VYtlbv730Wh1TQMktHw-35">
          <mxGeometry y="318" width="270" height="26" as="geometry" />
        </mxCell>
        <mxCell id="7VYtlbv730Wh1TQMktHw-49" style="edgeStyle=orthogonalEdgeStyle;rounded=0;orthogonalLoop=1;jettySize=auto;html=1;strokeWidth=1;fontSize=12;endArrow=diamondThin;endFill=0;endSize=10;exitX=0;exitY=0.5;exitDx=0;exitDy=0;entryX=1;entryY=0.5;entryDx=0;entryDy=0;" edge="1" parent="WIyWlLk6GJQsqaUBKTNV-1" source="7VYtlbv730Wh1TQMktHw-31" target="7VYtlbv730Wh1TQMktHw-42">
          <mxGeometry relative="1" as="geometry">
            <mxPoint x="790" y="-360" as="sourcePoint" />
            <mxPoint x="820" y="-320" as="targetPoint" />
          </mxGeometry>
        </mxCell>
        <mxCell id="7VYtlbv730Wh1TQMktHw-55" style="edgeStyle=orthogonalEdgeStyle;rounded=0;orthogonalLoop=1;jettySize=auto;html=1;endArrow=none;endFill=0;exitX=0.5;exitY=1.038;exitDx=0;exitDy=0;exitPerimeter=0;entryX=0.004;entryY=0.038;entryDx=0;entryDy=0;entryPerimeter=0;" edge="1" parent="WIyWlLk6GJQsqaUBKTNV-1" source="n4-UoHZURS_ivTSj71QO-30" target="7VYtlbv730Wh1TQMktHw-42">
          <mxGeometry relative="1" as="geometry">
            <mxPoint x="100" y="-480" as="sourcePoint" />
            <mxPoint x="360" y="-300" as="targetPoint" />
            <Array as="points">
              <mxPoint x="315" y="-310" />
              <mxPoint x="415" y="-310" />
            </Array>
          </mxGeometry>
        </mxCell>
        <mxCell id="7VYtlbv730Wh1TQMktHw-56" value="&lt;&lt; Interface &gt;&gt;&#xa;ListeDecourse" style="swimlane;fontStyle=1;align=center;verticalAlign=top;childLayout=stackLayout;horizontal=1;startSize=40;horizontalStack=0;resizeParent=1;resizeLast=0;collapsible=1;marginBottom=0;rounded=0;shadow=0;strokeWidth=1;" vertex="1" parent="WIyWlLk6GJQsqaUBKTNV-1">
          <mxGeometry x="420" y="-1200" width="410" height="126" as="geometry">
            <mxRectangle x="550" y="140" width="160" height="26" as="alternateBounds" />
          </mxGeometry>
        </mxCell>
        <mxCell id="7VYtlbv730Wh1TQMktHw-57" value="- ingredients: Map&lt;Aliment, Integer&gt;" style="text;align=left;verticalAlign=top;spacingLeft=4;spacingRight=4;overflow=hidden;rotatable=0;points=[[0,0.5],[1,0.5]];portConstraint=eastwest;" vertex="1" parent="7VYtlbv730Wh1TQMktHw-56">
          <mxGeometry y="40" width="410" height="26" as="geometry" />
        </mxCell>
        <mxCell id="7VYtlbv730Wh1TQMktHw-61" value="" style="line;html=1;strokeWidth=1;align=left;verticalAlign=middle;spacingTop=-1;spacingLeft=3;spacingRight=3;rotatable=0;labelPosition=right;points=[];portConstraint=eastwest;" vertex="1" parent="7VYtlbv730Wh1TQMktHw-56">
          <mxGeometry y="66" width="410" height="8" as="geometry" />
        </mxCell>
        <mxCell id="7VYtlbv730Wh1TQMktHw-62" value="+ ajouterIngredient(aliment: Aliment, quantite: Integer): void" style="text;align=left;verticalAlign=top;spacingLeft=4;spacingRight=4;overflow=hidden;rotatable=0;points=[[0,0.5],[1,0.5]];portConstraint=eastwest;" vertex="1" parent="7VYtlbv730Wh1TQMktHw-56">
          <mxGeometry y="74" width="410" height="26" as="geometry" />
        </mxCell>
        <mxCell id="7VYtlbv730Wh1TQMktHw-63" value="+ supprimerIngredient(aliment: Aliment): void" style="text;align=left;verticalAlign=top;spacingLeft=4;spacingRight=4;overflow=hidden;rotatable=0;points=[[0,0.5],[1,0.5]];portConstraint=eastwest;" vertex="1" parent="7VYtlbv730Wh1TQMktHw-56">
          <mxGeometry y="100" width="410" height="26" as="geometry" />
        </mxCell>
        <mxCell id="7VYtlbv730Wh1TQMktHw-81" style="edgeStyle=orthogonalEdgeStyle;rounded=0;orthogonalLoop=1;jettySize=auto;html=1;entryX=0.5;entryY=0;entryDx=0;entryDy=0;endArrow=none;endFill=0;exitX=0;exitY=0.5;exitDx=0;exitDy=0;" edge="1" parent="WIyWlLk6GJQsqaUBKTNV-1" source="7VYtlbv730Wh1TQMktHw-63" target="n4-UoHZURS_ivTSj71QO-17">
          <mxGeometry relative="1" as="geometry">
            <mxPoint x="140" y="-1050" as="sourcePoint" />
            <mxPoint x="340" y="-945" as="targetPoint" />
          </mxGeometry>
        </mxCell>
      </root>
    </mxGraphModel>
  </diagram>
</mxfile>
